<svg id="Layer_1" data-name="Layer 1" xmlns="http://www.w3.org/2000/svg" viewBox="0 0 388 126"><defs><style>.cls-1{fill:none;stroke-width:3px;stroke-dasharray:12 12;}.cls-1,.cls-2,.cls-3{stroke:#bbc3ca;stroke-miterlimit:10;}.cls-2,.cls-3{fill:#bbc3ca;}.cls-3{stroke-width:0.25px;}.cls-4{fill:#c1c1c1;}</style></defs><title>Dashed rect with incription</title><rect class="cls-1" x="1.5" y="1.5" width="385" height="123"/><path class="cls-2" d="M161.66,782.76V776l-5.19-9.16h2.41l2.31,4.39c.63,1.2,1.12,2.17,1.63,3.28h0c.46-1,1-2.08,1.66-3.28l2.36-4.39h2.41L163.8,776v6.78Z" transform="translate(-47 -732)"/><path class="cls-2" d="M184.33,774.64c0,5.48-3.43,8.38-7.62,8.38s-7.38-3.26-7.38-8.07c0-5.05,3.24-8.36,7.62-8.36S184.33,769.92,184.33,774.64Zm-12.74.26c0,3.4,1.9,6.44,5.24,6.44s5.26-3,5.26-6.61c0-3.16-1.7-6.47-5.24-6.47S171.59,771.41,171.59,774.9Z" transform="translate(-47 -732)"/><path class="cls-2" d="M189.19,766.85v9.42c0,3.56,1.63,5.08,3.82,5.08,2.44,0,4-1.56,4-5.08v-9.42h2.14v9.28c0,4.89-2.65,6.89-6.21,6.89-3.36,0-5.89-1.87-5.89-6.8v-9.37Z" transform="translate(-47 -732)"/><path class="cls-2" d="M210.11,766.85v6.66H218v-6.66h2.14v15.91H218V775.3h-7.94v7.46H208V766.85Z" transform="translate(-47 -732)"/><path class="cls-2" d="M226.51,777.76l-1.7,5h-2.19l5.58-15.91h2.56l5.6,15.91h-2.26l-1.75-5Zm5.38-1.6-1.61-4.58c-.37-1-.61-2-.85-2.9h0c-.24.94-.51,1.91-.83,2.88l-1.61,4.6Z" transform="translate(-47 -732)"/><path class="cls-2" d="M241.07,782.76l-5.36-15.91H238l2.56,7.84c.71,2.15,1.31,4.08,1.75,5.95h0c.46-1.84,1.15-3.85,1.88-5.92l2.78-7.86h2.26l-5.87,15.91Z" transform="translate(-47 -732)"/><path class="cls-2" d="M259.55,775.3h-6.38V781h7.11v1.72h-9.23V766.85h8.86v1.72h-6.75v5h6.38Z" transform="translate(-47 -732)"/><path class="cls-2" d="M263,782.76V766.85h2.31l5.26,8a44.71,44.71,0,0,1,2.95,5.17l0,0c-.19-2.12-.24-4.06-.24-6.54v-6.66h2v15.91h-2.14L268,774.69a50,50,0,0,1-3.07-5.31l-.07,0c.12,2,.17,3.92.17,6.56v6.8Z" transform="translate(-47 -732)"/><path class="cls-2" d="M281.56,766.59a26.77,26.77,0,0,1-2.29,5.59l-1.36.17a32.57,32.57,0,0,0,1.44-5.55Z" transform="translate(-47 -732)"/><path class="cls-2" d="M288,768.6h-5v-1.75h12.15v1.75h-5v14.16H288Z" transform="translate(-47 -732)"/><path class="cls-2" d="M313.65,782.24a10.82,10.82,0,0,1-4.33.75c-4.63,0-8.11-2.83-8.11-8,0-5,3.48-8.36,8.57-8.36a9,9,0,0,1,3.9.71l-.51,1.68a7.92,7.92,0,0,0-3.31-.66c-3.85,0-6.4,2.38-6.4,6.56,0,3.89,2.31,6.4,6.31,6.4a8.71,8.71,0,0,0,3.46-.66Z" transform="translate(-47 -732)"/><path class="cls-2" d="M316.3,767.07a22.81,22.81,0,0,1,4.07-.33c2.26,0,3.73.4,4.75,1.3a3.91,3.91,0,0,1,1.29,3,4.2,4.2,0,0,1-3.09,4.06v.07c1.27.43,2,1.56,2.41,3.21a24.79,24.79,0,0,0,1.27,4.37H324.8a20.21,20.21,0,0,1-1.1-3.8c-.49-2.2-1.36-3-3.29-3.09h-2v6.89H316.3Zm2.12,7.25h2.17c2.27,0,3.7-1.2,3.7-3,0-2.05-1.53-3-3.77-3a9,9,0,0,0-2.09.19Z" transform="translate(-47 -732)"/><path class="cls-2" d="M337.89,775.3h-6.38V781h7.11v1.72H329.4V766.85h8.86v1.72h-6.75v5h6.38Z" transform="translate(-47 -732)"/><path class="cls-2" d="M344,777.76l-1.7,5h-2.19l5.58-15.91h2.56l5.6,15.91H351.6l-1.75-5Zm5.38-1.6-1.61-4.58c-.37-1-.61-2-.85-2.9h0c-.24.94-.51,1.91-.83,2.88l-1.61,4.6Z" transform="translate(-47 -732)"/><path class="cls-2" d="M357.52,768.6h-5v-1.75h12.15v1.75h-5v14.16h-2.14Z" transform="translate(-47 -732)"/><path class="cls-2" d="M375,775.3h-6.38V781h7.11v1.72H366.5V766.85h8.87v1.72h-6.75v5H375Z" transform="translate(-47 -732)"/><path class="cls-2" d="M378.48,767.07a31.35,31.35,0,0,1,4.51-.33c3,0,5.21.68,6.65,2a7.22,7.22,0,0,1,2.31,5.71,8.27,8.27,0,0,1-2.36,6.18c-1.53,1.49-4.07,2.29-7.26,2.29a35.24,35.24,0,0,1-3.85-.19Zm2.12,14.07a13.88,13.88,0,0,0,2.14.12c4.53,0,7-2.46,7-6.75,0-3.75-2.17-6.14-6.65-6.14a12.45,12.45,0,0,0-2.48.21Z" transform="translate(-47 -732)"/><path class="cls-2" d="M160.66,806.09l-1.7,5h-2.19l5.58-15.91h2.56l5.6,15.91h-2.26l-1.75-5Zm5.38-1.6-1.61-4.58c-.37-1-.61-2-.85-2.9h0c-.24.94-.51,1.91-.83,2.88l-1.61,4.6Z" transform="translate(-47 -732)"/><path class="cls-2" d="M172.91,811.1V795.19h2.31l5.26,8a44.71,44.71,0,0,1,2.95,5.17l0,0c-.19-2.12-.24-4.06-.24-6.54v-6.66h2V811.1h-2.14L177.87,803a50,50,0,0,1-3.07-5.31l-.07,0c.12,2,.17,3.92.17,6.56v6.8Z" transform="translate(-47 -732)"/><path class="cls-2" d="M192.41,811.1v-6.75l-5.19-9.16h2.41l2.31,4.39c.63,1.2,1.12,2.17,1.63,3.28h0c.46-1,1-2.08,1.66-3.28l2.36-4.39h2.41l-5.5,9.13v6.78Z" transform="translate(-47 -732)"/><path class="cls-2" d="M206.79,808.6a7.69,7.69,0,0,0,3.8,1c2.17,0,3.43-1.11,3.43-2.71s-.88-2.34-3.09-3.16c-2.68-.92-4.33-2.27-4.33-4.51,0-2.48,2.12-4.32,5.31-4.32a7.64,7.64,0,0,1,3.63.78l-.58,1.68a6.7,6.7,0,0,0-3.12-.76c-2.24,0-3.09,1.3-3.09,2.38,0,1.49,1,2.22,3.26,3.07,2.78,1,4.19,2.34,4.19,4.67s-1.88,4.58-5.75,4.58a8.69,8.69,0,0,1-4.19-1Z" transform="translate(-47 -732)"/><path class="cls-2" d="M222.21,796.93h-5v-1.75h12.15v1.75h-5V811.1h-2.14Z" transform="translate(-47 -732)"/><path class="cls-2" d="M244.56,803c0,5.48-3.43,8.38-7.62,8.38s-7.38-3.26-7.38-8.07c0-5.05,3.24-8.36,7.62-8.36S244.56,798.26,244.56,803Zm-12.74.26c0,3.4,1.9,6.44,5.24,6.44s5.26-3,5.26-6.61c0-3.16-1.7-6.47-5.24-6.47S231.82,799.74,231.82,803.24Z" transform="translate(-47 -732)"/><path class="cls-2" d="M247.3,795.4a22.81,22.81,0,0,1,4.07-.33c2.26,0,3.73.4,4.75,1.3a3.91,3.91,0,0,1,1.29,3,4.2,4.2,0,0,1-3.09,4.06v.07c1.27.43,2,1.56,2.41,3.21A24.7,24.7,0,0,0,258,811.1H255.8a20.16,20.16,0,0,1-1.1-3.8c-.49-2.2-1.36-3-3.29-3.09h-2v6.89H247.3Zm2.12,7.25h2.17c2.27,0,3.7-1.2,3.7-3,0-2.05-1.53-3-3.77-3a9,9,0,0,0-2.09.19Z" transform="translate(-47 -732)"/><path class="cls-2" d="M262.52,795.19V811.1H260.4V795.19Z" transform="translate(-47 -732)"/><path class="cls-2" d="M274.72,803.64h-6.38v5.74h7.11v1.72h-9.23V795.19h8.86v1.72h-6.75v5h6.38Z" transform="translate(-47 -732)"/><path class="cls-2" d="M277.91,808.6a7.69,7.69,0,0,0,3.8,1c2.17,0,3.43-1.11,3.43-2.71s-.88-2.34-3.09-3.16c-2.68-.92-4.33-2.27-4.33-4.51,0-2.48,2.12-4.32,5.31-4.32a7.64,7.64,0,0,1,3.63.78l-.58,1.68a6.7,6.7,0,0,0-3.12-.76c-2.24,0-3.09,1.3-3.09,2.38,0,1.49,1,2.22,3.26,3.07,2.78,1,4.19,2.34,4.19,4.67s-1.88,4.58-5.75,4.58a8.69,8.69,0,0,1-4.19-1Z" transform="translate(-47 -732)"/><path class="cls-2" d="M297.9,811.1v-6.75l-5.19-9.16h2.41l2.31,4.39c.63,1.2,1.12,2.17,1.63,3.28h0c.46-1,1-2.08,1.66-3.28l2.36-4.39h2.41l-5.5,9.13v6.78Z" transform="translate(-47 -732)"/><path class="cls-2" d="M315.74,803.64h-6.38v5.74h7.11v1.72h-9.23V795.19h8.86v1.72h-6.75v5h6.38Z" transform="translate(-47 -732)"/><path class="cls-2" d="M322.73,796.93h-5v-1.75h12.15v1.75h-5V811.1h-2.14Z" transform="translate(-47 -732)"/><path class="cls-3" d="M165,828.25a8.06,8.06,0,0,1-2.88.44c-3.08,0-5.39-1.66-5.39-4.7s2.31-4.88,5.7-4.88a6.71,6.71,0,0,1,2.59.41l-.34,1a5.89,5.89,0,0,0-2.2-.39c-2.56,0-4.26,1.39-4.26,3.83,0,2.28,1.54,3.74,4.19,3.74a6.5,6.5,0,0,0,2.3-.39Z" transform="translate(-47 -732)"/><path class="cls-3" d="M166.77,819.38a17.17,17.17,0,0,1,2.7-.19,5,5,0,0,1,3.16.76,2.16,2.16,0,0,1,.86,1.77,2.53,2.53,0,0,1-2.06,2.37v0A2.4,2.4,0,0,1,173,826a13.23,13.23,0,0,0,.84,2.55h-1.46a10.77,10.77,0,0,1-.73-2.22,2,2,0,0,0-2.19-1.81h-1.33v4h-1.41Zm1.41,4.24h1.44c1.51,0,2.46-.7,2.46-1.77s-1-1.72-2.51-1.74a6.81,6.81,0,0,0-1.39.11Z" transform="translate(-47 -732)"/><path class="cls-3" d="M181.13,824.19h-4.24v3.35h4.73v1h-6.14v-9.3h5.89v1h-4.48v2.94h4.24Z" transform="translate(-47 -732)"/><path class="cls-3" d="M185.21,825.63l-1.13,2.92h-1.46l3.71-9.3H188l3.72,9.3h-1.51l-1.17-2.92Zm3.58-.94L187.72,822c-.24-.61-.4-1.16-.57-1.7h0c-.16.55-.34,1.12-.55,1.68l-1.07,2.69Z" transform="translate(-47 -732)"/><path class="cls-3" d="M194.18,820.27h-3.32v-1h8.08v1h-3.33v8.28h-1.42Z" transform="translate(-47 -732)"/><path class="cls-3" d="M205.8,824.19h-4.24v3.35h4.73v1h-6.14v-9.3H206v1h-4.48v2.94h4.24Z" transform="translate(-47 -732)"/><path class="cls-3" d="M213.23,828.55v-3.95l-3.45-5.35h1.6l1.54,2.57c.42.7.75,1.27,1.08,1.92h0c.31-.61.68-1.21,1.1-1.92l1.57-2.57h1.6l-3.66,5.34v4Z" transform="translate(-47 -732)"/><path class="cls-3" d="M228.31,823.8c0,3.2-2.28,4.9-5.07,4.9a4.59,4.59,0,0,1-4.91-4.72,4.76,4.76,0,0,1,5.07-4.88A4.56,4.56,0,0,1,228.31,823.8Zm-8.47.15a3.5,3.5,0,0,0,3.48,3.77c2.23,0,3.5-1.75,3.5-3.86a3.51,3.51,0,0,0-3.48-3.78C221,820.08,219.84,821.92,219.84,824Z" transform="translate(-47 -732)"/><path class="cls-3" d="M231.54,819.25v5.5c0,2.08,1.08,3,2.54,3,1.62,0,2.66-.91,2.66-3v-5.5h1.42v5.42c0,2.86-1.76,4-4.13,4s-3.92-1.09-3.92-4v-5.48Z" transform="translate(-47 -732)"/><path class="cls-3" d="M240.61,819.38a17.17,17.17,0,0,1,2.7-.19,5,5,0,0,1,3.16.76,2.16,2.16,0,0,1,.86,1.77,2.53,2.53,0,0,1-2.06,2.37v0a2.4,2.4,0,0,1,1.6,1.88,13.23,13.23,0,0,0,.84,2.55h-1.46a10.77,10.77,0,0,1-.73-2.22,2,2,0,0,0-2.19-1.81H242v4h-1.41Zm1.41,4.24h1.44c1.51,0,2.46-.7,2.46-1.77s-1-1.72-2.51-1.74a6.81,6.81,0,0,0-1.39.11Z" transform="translate(-47 -732)"/><path class="cls-3" d="M252.75,819.25h5.88v1h-4.47v3.09h4.13v1h-4.13v4.21h-1.41Z" transform="translate(-47 -732)"/><path class="cls-3" d="M262,819.25v9.3h-1.41v-9.3Z" transform="translate(-47 -732)"/><path class="cls-3" d="M264.5,819.38a17.17,17.17,0,0,1,2.7-.19,5,5,0,0,1,3.16.76,2.16,2.16,0,0,1,.86,1.77,2.53,2.53,0,0,1-2.06,2.37v0a2.4,2.4,0,0,1,1.6,1.88,13.23,13.23,0,0,0,.84,2.55h-1.46a10.77,10.77,0,0,1-.73-2.22,2,2,0,0,0-2.19-1.81h-1.33v4H264.5Zm1.41,4.24h1.44c1.51,0,2.46-.7,2.46-1.77s-1-1.72-2.51-1.74a6.81,6.81,0,0,0-1.39.11Z" transform="translate(-47 -732)"/><path class="cls-3" d="M273,827.09a5.65,5.65,0,0,0,2.53.61c1.44,0,2.28-.65,2.28-1.59s-.58-1.37-2.06-1.85c-1.78-.54-2.88-1.32-2.88-2.63s1.41-2.52,3.53-2.52a5.67,5.67,0,0,1,2.41.46l-.39,1a5,5,0,0,0-2.07-.44c-1.49,0-2.06.76-2.06,1.39,0,.87.66,1.3,2.17,1.79,1.85.61,2.78,1.37,2.78,2.73s-1.25,2.68-3.82,2.68a6.43,6.43,0,0,1-2.78-.59Z" transform="translate(-47 -732)"/><path class="cls-3" d="M283.26,820.27h-3.32v-1H288v1h-3.33v8.28h-1.42Z" transform="translate(-47 -732)"/><path class="cls-3" d="M292.47,827.09a5.65,5.65,0,0,0,2.53.61c1.44,0,2.28-.65,2.28-1.59s-.58-1.37-2.06-1.85c-1.78-.54-2.88-1.32-2.88-2.63s1.41-2.52,3.53-2.52a5.67,5.67,0,0,1,2.41.46l-.39,1a5,5,0,0,0-2.07-.44c-1.49,0-2.06.76-2.06,1.39,0,.87.66,1.3,2.17,1.79,1.85.61,2.78,1.37,2.78,2.73s-1.25,2.68-3.82,2.68a6.43,6.43,0,0,1-2.78-.59Z" transform="translate(-47 -732)"/><path class="cls-3" d="M302.72,820.27H299.4v-1h8.08v1h-3.33v8.28h-1.42Z" transform="translate(-47 -732)"/><path class="cls-3" d="M317.58,823.8c0,3.2-2.28,4.9-5.07,4.9a4.59,4.59,0,0,1-4.91-4.72,4.76,4.76,0,0,1,5.07-4.88A4.56,4.56,0,0,1,317.58,823.8Zm-8.47.15a3.5,3.5,0,0,0,3.48,3.77c2.23,0,3.5-1.75,3.5-3.86a3.51,3.51,0,0,0-3.48-3.78C310.28,820.08,309.12,821.92,309.12,824Z" transform="translate(-47 -732)"/><path class="cls-3" d="M319.41,819.38a17.17,17.17,0,0,1,2.7-.19,5,5,0,0,1,3.16.76,2.16,2.16,0,0,1,.86,1.77,2.53,2.53,0,0,1-2.06,2.37v0a2.4,2.4,0,0,1,1.6,1.88,13.23,13.23,0,0,0,.84,2.55h-1.46a10.77,10.77,0,0,1-.73-2.22,2,2,0,0,0-2.19-1.81h-1.33v4h-1.41Zm1.41,4.24h1.44c1.51,0,2.46-.7,2.46-1.77s-1-1.72-2.51-1.74a6.81,6.81,0,0,0-1.39.11Z" transform="translate(-47 -732)"/><path class="cls-3" d="M330.37,828.55v-3.95l-3.45-5.35h1.6l1.54,2.57c.42.7.75,1.27,1.08,1.92h0c.31-.61.68-1.21,1.1-1.92l1.57-2.57h1.6l-3.66,5.34v4Z" transform="translate(-47 -732)"/><path class="cls-3" d="M340.13,819.38a16.06,16.06,0,0,1,2.57-.19,5.09,5.09,0,0,1,3,.68,1.86,1.86,0,0,1,.91,1.64,2.29,2.29,0,0,1-1.85,2v0A2.55,2.55,0,0,1,347,825.9a2.35,2.35,0,0,1-.92,1.86,6.17,6.17,0,0,1-3.77.87,19.17,19.17,0,0,1-2.19-.11Zm1.41,3.81h1.28c1.49,0,2.36-.66,2.36-1.56,0-1.09-1-1.52-2.4-1.52a7.1,7.1,0,0,0-1.25.08Zm0,4.46a8.71,8.71,0,0,0,1.18.06c1.46,0,2.8-.46,2.8-1.81s-1.28-1.79-2.82-1.79h-1.17Z" transform="translate(-47 -732)"/><path class="cls-3" d="M358.23,823.8c0,3.2-2.28,4.9-5.07,4.9a4.59,4.59,0,0,1-4.91-4.72,4.76,4.76,0,0,1,5.07-4.88A4.56,4.56,0,0,1,358.23,823.8Zm-8.47.15a3.5,3.5,0,0,0,3.48,3.77c2.23,0,3.5-1.75,3.5-3.86a3.51,3.51,0,0,0-3.48-3.78C350.93,820.08,349.76,821.92,349.76,824Z" transform="translate(-47 -732)"/><path class="cls-3" d="M361.6,825.63l-1.13,2.92H359l3.71-9.3h1.7l3.72,9.3h-1.51l-1.17-2.92Zm3.58-.94L364.11,822c-.24-.61-.4-1.16-.57-1.7h0c-.16.55-.34,1.12-.55,1.68l-1.07,2.69Z" transform="translate(-47 -732)"/><path class="cls-3" d="M369.74,819.38a17.17,17.17,0,0,1,2.7-.19,5,5,0,0,1,3.16.76,2.16,2.16,0,0,1,.86,1.77,2.53,2.53,0,0,1-2.06,2.37v0A2.4,2.4,0,0,1,376,826a13.16,13.16,0,0,0,.84,2.55h-1.46a10.71,10.71,0,0,1-.73-2.22,2,2,0,0,0-2.19-1.81h-1.33v4h-1.41Zm1.41,4.24h1.44c1.51,0,2.46-.7,2.46-1.77s-1-1.72-2.51-1.74a6.81,6.81,0,0,0-1.39.11Z" transform="translate(-47 -732)"/><path class="cls-3" d="M378.45,819.38a23.79,23.79,0,0,1,3-.19,7,7,0,0,1,4.42,1.16,4,4,0,0,1,1.54,3.34,4.54,4.54,0,0,1-1.57,3.61,7.49,7.49,0,0,1-4.83,1.34c-1,0-1.85,0-2.56-.11Zm1.41,8.22a10.34,10.34,0,0,0,1.42.07c3,0,4.65-1.44,4.65-3.95,0-2.19-1.44-3.59-4.42-3.59a9.42,9.42,0,0,0-1.65.12Z" transform="translate(-47 -732)"/><path class="cls-4" d="M116.5,768.5h-30a10,10,0,0,0-10,10v30a10,10,0,0,0,10,10h30a10,10,0,0,0,10-10v-30A10,10,0,0,0,116.5,768.5ZM113,796.4h-9.6V806H98.6v-9.6H89v-4.8h9.6V782h4.8v9.6H113Z" transform="translate(-47 -732)"/></svg>