<svg xmlns="http://www.w3.org/2000/svg" xmlns:xlink="http://www.w3.org/1999/xlink" viewBox="0 0 371 334"><defs><style>.cls-1{opacity:0.57;}.cls-2{fill:#a1abb7;stroke:#a1abb7;}.cls-2,.cls-4,.cls-5,.cls-6,.cls-7,.cls-8,.cls-9{stroke-miterlimit:10;}.cls-3{font-size:12px;fill:#fff;font-family:MyriadPro-Regular, Myriad Pro;}.cls-4,.cls-5,.cls-6,.cls-7,.cls-8,.cls-9{stroke:#647388;stroke-width:4px;}.cls-4{fill:url(#radial-gradient);}.cls-5{fill:url(#radial-gradient-2);}.cls-6{fill:url(#radial-gradient-3);}.cls-7{fill:url(#radial-gradient-4);}.cls-8{fill:url(#radial-gradient-5);}.cls-9{fill:url(#radial-gradient-6);}</style><radialGradient id="radial-gradient" cx="143.5" cy="57" r="49.15" gradientUnits="userSpaceOnUse"><stop offset="0" stop-color="#fff"/><stop offset="0" stop-opacity="0"/></radialGradient><radialGradient id="radial-gradient-2" cx="228.5" cy="57" r="49.15" xlink:href="#radial-gradient"/><radialGradient id="radial-gradient-3" cy="167" r="49.15" xlink:href="#radial-gradient"/><radialGradient id="radial-gradient-4" cx="228.5" cy="167" r="49.15" xlink:href="#radial-gradient"/><radialGradient id="radial-gradient-5" cy="277" r="49.15" xlink:href="#radial-gradient"/><radialGradient id="radial-gradient-6" cx="228.5" cy="277" r="49.15" xlink:href="#radial-gradient"/></defs><title>Asset 1</title><g id="Layer_2" data-name="Layer 2"><g id="Layer_1-2" data-name="Layer 1"><rect class="cls-1" x="272" y="1" width="99" height="333"/><rect class="cls-1" width="99" height="334"/><rect class="cls-2" x="166.5" y="2.5" width="20" height="20"/><rect class="cls-2" x="251.5" y="2.5" width="20" height="20"/><text class="cls-3" transform="translate(256.5 16.5)">2</text><rect class="cls-2" x="166.5" y="112.5" width="20" height="20"/><text class="cls-3" transform="translate(172.5 127.5)">3</text><rect class="cls-2" x="251.5" y="112.5" width="20" height="20"/><text class="cls-3" transform="translate(256.5 127.5)">4</text><rect class="cls-2" x="166.5" y="222.5" width="20" height="20"/><text class="cls-3" transform="translate(172.5 237.5)">5</text><rect class="cls-2" x="251.5" y="222.5" width="20" height="20"/><text class="cls-3" transform="translate(256.5 237.5)">6</text><text class="cls-3" transform="translate(172.5 16.5)">1</text><rect class="cls-4" x="101" y="2" width="85" height="110"/><rect class="cls-5" x="186" y="2" width="85" height="110"/><rect class="cls-6" x="101" y="112" width="85" height="110"/><rect class="cls-7" x="186" y="112" width="85" height="110"/><rect class="cls-8" x="101" y="222" width="85" height="110"/><rect class="cls-9" x="186" y="222" width="85" height="110"/></g></g></svg>