<svg id="Слой_1" data-name="Слой 1" xmlns="http://www.w3.org/2000/svg" viewBox="0 0 595.28 841.89"><defs><style>.cls-1{fill:#526bb2;}.cls-2{fill:#fff;}.cls-3{fill:#3b5693;}</style></defs><title>JPG logo</title><polygon class="cls-1" points="595.28 841.89 0 841.89 0 0 432 0 595.28 167.67 595.28 841.89"/><path class="cls-2" d="M229.63,361.91h13v69.41q0,12.85-8.14,20.4t-21.13,7.55q-13.84,0-22-7.05t-7.84-20.43l0.13-.4h12.46q0,8.9,4.52,13.28t12.76,4.38a15.38,15.38,0,0,0,11.73-4.84q4.55-4.84,4.55-12.94V361.91Z"/><path class="cls-2" d="M278.48,419.39v38.5h-13v-96h36.72q15.36,0,23.86,7.91t8.5,20.83q0,13.12-8.5,20.93t-23.86,7.81H278.48Zm0-10.22h23.73q9.75,0,14.57-5.23a18.74,18.74,0,0,0,4.81-13.19,19,19,0,0,0-4.84-13.29q-4.84-5.33-14.53-5.33H278.48v37Z"/><path class="cls-2" d="M421.52,445.17q-3.43,5.27-11.9,9.69t-21.92,4.42q-17.2,0-28.44-11T348,419.79V400q0-17.47,10.48-28.48t27-11q16.48,0,25.91,8.11a26.88,26.88,0,0,1,9.62,20.9l-0.13.4H408.53a20.12,20.12,0,0,0-6.36-13.78q-5.77-5.4-16.64-5.41A21.77,21.77,0,0,0,367.8,379q-6.72,8.23-6.72,20.88v19.89q0,12.78,7.51,21a24.7,24.7,0,0,0,19.12,8.27q8.17,0,13.38-2.17t7.45-4.93V420.18h-21V410h34v35.2Z"/><path class="cls-3" d="M432,0L595.28,167.67l-163.28,0V0Z"/></svg>