<svg id="Layer_1" data-name="Layer 1" xmlns="http://www.w3.org/2000/svg" xmlns:xlink="http://www.w3.org/1999/xlink" viewBox="0 0 174 334"><defs><style>.cls-1{fill:#a1abb7;stroke:#a1abb7;}.cls-1,.cls-3,.cls-4,.cls-5,.cls-6,.cls-7,.cls-8{stroke-miterlimit:10;}.cls-2{font-size:12px;fill:#fff;font-family:MyriadPro-Regular, Myriad Pro;}.cls-3,.cls-4,.cls-5,.cls-6,.cls-7,.cls-8{stroke:#647388;stroke-width:4px;}.cls-3{fill:url(#radial-gradient);}.cls-4{fill:url(#radial-gradient-2);}.cls-5{fill:url(#radial-gradient-3);}.cls-6{fill:url(#radial-gradient-4);}.cls-7{fill:url(#radial-gradient-5);}.cls-8{fill:url(#radial-gradient-6);}</style><radialGradient id="radial-gradient" cx="44.5" cy="57" r="49.15" gradientUnits="userSpaceOnUse"><stop offset="0" stop-color="#fff"/><stop offset="0" stop-opacity="0"/></radialGradient><radialGradient id="radial-gradient-2" cx="129.5" cy="57" r="49.15" xlink:href="#radial-gradient"/><radialGradient id="radial-gradient-3" cy="167" r="49.15" xlink:href="#radial-gradient"/><radialGradient id="radial-gradient-4" cx="129.5" cy="167" r="49.15" xlink:href="#radial-gradient"/><radialGradient id="radial-gradient-5" cy="277" r="49.15" xlink:href="#radial-gradient"/><radialGradient id="radial-gradient-6" cx="129.5" cy="277" r="49.15" xlink:href="#radial-gradient"/></defs><title>only_grid</title><rect class="cls-1" x="67.5" y="2.5" width="20" height="20"/><rect class="cls-1" x="152.5" y="2.5" width="20" height="20"/><text class="cls-2" transform="translate(157.5 16.5)">2</text><rect class="cls-1" x="67.5" y="112.5" width="20" height="20"/><text class="cls-2" transform="translate(73.5 127.5)">3</text><rect class="cls-1" x="152.5" y="112.5" width="20" height="20"/><text class="cls-2" transform="translate(157.5 127.5)">4</text><rect class="cls-1" x="67.5" y="222.5" width="20" height="20"/><text class="cls-2" transform="translate(73.5 237.5)">5</text><rect class="cls-1" x="152.5" y="222.5" width="20" height="20"/><text class="cls-2" transform="translate(157.5 237.5)">6</text><text class="cls-2" transform="translate(73.5 16.5)">1</text><rect class="cls-3" x="2" y="2" width="85" height="110"/><rect class="cls-4" x="87" y="2" width="85" height="110"/><rect class="cls-5" x="2" y="112" width="85" height="110"/><rect class="cls-6" x="87" y="112" width="85" height="110"/><rect class="cls-7" x="2" y="222" width="85" height="110"/><rect class="cls-8" x="87" y="222" width="85" height="110"/></svg>