<svg id="Слой_1" data-name="Слой 1" xmlns="http://www.w3.org/2000/svg" viewBox="0 0 595.28 841.89"><defs><style>.cls-1{fill:#bc3535;}.cls-2{fill:#fff;}.cls-3{fill:#771919;}</style></defs><title>PDF logo</title><polygon class="cls-1" points="595.28 841.89 0 841.89 0 0 432 0 595.28 167.67 595.28 841.89"/><path class="cls-2" d="M295.89,244.14c-0.22-11.09-2.82-21.46-9.49-30.41-1.51-2-3.94-3.37-5.94-5-1.5,2.34-3.94,4.52-4.35,7-4.35,26.58-.17,52.39,8.44,78.08l10.84-41.07c0,7,.48,13-0.1,18.91-1.27,13-3.15,25.95-4.58,38.93a17,17,0,0,0,.64,7.86c13.83,34.76,33.9,64.71,66.78,84.33a21.11,21.11,0,0,0,12.1,2.6C394.65,403,419,400.7,443.54,404a51.39,51.39,0,0,1,12,3.23c9.89,3.93,13,9.56,11.69,20.76-24.59-17.73-52.12-11.45-79.1-10.15A175.13,175.13,0,0,0,433.81,435c4.44,1,9,2.42,13.47,2.22,6.31-.29,12.55-1.91,18.53-2.92-0.35,9.74-5.92,16-17.84,15.66-10.7-.31-21.82-1.14-31.9-4.4-18.48-6-36.26-14.07-54.49-20.87-4.21-1.57-9.22-2.62-13.56-2a739.45,739.45,0,0,0-113.74,27,18.08,18.08,0,0,0-9.16,7.31c-12.47,20.63-24.6,41.5-41.11,59.26a105.87,105.87,0,0,1-18.69,16.28c-11.23,7.44-23.27,6.34-33.64-2C127,527,127,521.25,129.26,517c4.29-8.15,9-16.42,15.21-23.15,14.36-15.63,32.69-26,53-36.82-1.63,2.31-2.15,3.17-2.8,3.93s-1.52,1.42-2.23,2.17c-13,13.72-26.18,27.25-38.83,41.27-4.25,4.71-7.25,10.61-10.5,16.15-1.27,2.17-1.68,4.85-2.48,7.29l1.67,1.64c5.27-3.34,11-6.15,15.72-10.12,15.49-13,26.77-29.51,37.46-46.36,29.31-46.2,54-94.85,75.48-145.12a16.79,16.79,0,0,0,.57-10c-6.77-27-13.73-54-13.64-82.08a97.09,97.09,0,0,1,1-14.26c1.81-11.89,7-16.94,17.42-17.42,12.87-.59,20.24,3.88,22.27,15.76,1.34,7.85.08,16.15,0,24.25Zm41.18,165.29c-23.92-17.16-41.85-40.16-55.16-65.81L236,437.76Z"/><path class="cls-2" d="M286.08,517.85v26.23h-8.85V478.68h25q10.47,0,16.26,5.39t5.79,14.2q0,8.94-5.79,14.26t-16.26,5.32H286.08Zm0-7h16.17q6.65,0,9.93-3.57a12.77,12.77,0,0,0,3.28-9,13,13,0,0,0-3.3-9.06q-3.3-3.63-9.91-3.63H286.08v25.25Z"/><path class="cls-2" d="M336.17,544.08V478.68h20.08q12.85,0,20.62,7.88t7.77,20.37v8.94q0,12.53-7.77,20.37t-20.62,7.84H336.17ZM345,485.64v51.48h11.23q9.07,0,14.31-6t5.23-15.31v-9q0-9.25-5.23-15.21t-14.31-6H345Z"/><path class="cls-2" d="M435.44,515.15H405.61v28.93h-8.85V478.68H440v7H405.61v22.55h29.83v7Z"/><path class="cls-3" d="M432,0L595.28,167.67l-163.28,0V0Z"/></svg>